<?xml version="1.0" encoding="utf-8"?>
<svg viewBox="0 0 640 512" xmlns="http://www.w3.org/2000/svg">
  <path d="M 389.589 91.676 L 295.64 433.747 C 292.045 446.728 279.053 454.209 266.576 450.544 C 254.099 446.803 246.906 433.288 250.43 420.308 L 344.376 78.252 C 347.974 65.276 360.964 57.763 373.442 61.472 C 385.918 65.178 393.112 78.703 389.589 91.676 Z M 465.773 153.224 L 547.979 238.741 C 557.153 248.284 557.153 263.707 547.979 273.252 L 465.773 358.768 C 456.6 368.312 441.774 368.312 432.6 358.768 C 423.425 349.223 423.425 333.799 432.6 324.256 L 498.143 255.996 L 432.6 187.736 C 423.425 178.192 423.425 162.768 432.6 153.224 C 441.774 143.68 456.6 143.68 465.773 153.224 Z M 207.419 187.736 L 141.838 255.996 L 207.419 324.256 C 216.594 333.799 216.594 349.223 207.419 358.768 C 198.244 368.312 183.418 368.312 174.243 358.768 L 92.019 273.252 C 82.847 263.707 82.847 248.284 92.019 238.741 L 174.243 153.224 C 183.418 143.68 198.244 143.68 207.419 153.224 C 216.594 162.768 216.594 178.192 207.419 187.736 Z" style="fill: rgb(194, 226, 245); fill-rule: nonzero; fill-opacity: 0.1; paint-order: fill;"/>
</svg>